<?xml version="1.0" encoding="iso-8859-1"?>
<!-- Generator: Adobe Illustrator 19.0.0, SVG Export Plug-In . SVG Version: 6.00 Build 0)  -->
<svg version="1.1" id="Layer_1" xmlns="http://www.w3.org/2000/svg" xmlns:xlink="http://www.w3.org/1999/xlink" x="0px" y="0px"
	 viewBox="0 0 512 512" style="enable-background:new 0 0 512 512;" xml:space="preserve">
<path style="fill:#CE9227;" d="M302.641,344.409v50.761c0,23.939-19.404,43.353-43.342,43.353v48.055h8.986
	c13.218,0,23.928,10.71,23.928,23.928h-45.181c-14.002,0-25.349-11.358-25.349-25.349V277.048"/>
<path style="fill:#E5A933;" d="M512,70.592c0,4.932-2.006,9.394-5.235,12.633c-3.229,3.229-7.701,5.224-12.633,5.224H398.66v0.021
	l-0.178,22.841l-0.867,109.349c-0.303,26.739-8.662,51.534-22.758,72.056l-25.819,27.836c-22.288,17.92-50.604,28.63-81.387,28.63
	h-32.423l-112.828-17.23C54.805,331.952,0,277.147,0,209.542V53.267l67.459,141.501l9.498,19.926l14.754-10.324
	c3.877-2.717,7.826-5.308,11.828-7.784c5.13-3.176,10.355-6.154,15.673-8.934c9.206-4.817,18.651-9.028,28.296-12.633
	c5.172-1.933,10.397-3.688,15.673-5.266c9.31-2.8,18.766-5.047,28.306-6.729c5.204-0.92,10.428-1.672,15.673-2.257
	c9.394-1.055,18.84-1.578,28.296-1.557c5.224,0.01,10.449,0.188,15.673,0.522c9.456,0.616,18.902,1.766,28.296,3.469
	c5.245,0.951,10.47,2.069,15.673,3.365c11.013,2.727,21.922,6.228,32.622,10.512l-14.42-107.729
	c-4.817-35.924,23.134-67.856,59.382-67.856c10.104,0,20.167,0.805,30.104,2.393s19.749,3.971,29.341,7.126l48.232,15.872
	c13.312,4.378,23.583,14.43,28.473,26.948c1.62,4.106,2.644,8.485,3.009,13.009C511.948,68.085,512,69.327,512,70.592z"/>
<path style="fill:#665D5E;" d="M425.386,43.547c-0.544,0-1.096-0.056-1.65-0.176l-9.752-2.09c-4.232-0.907-6.928-5.073-6.021-9.305
	s5.075-6.929,9.305-6.021l9.752,2.09c4.232,0.907,6.928,5.073,6.021,9.305C432.253,41.028,429.002,43.547,425.386,43.547z"/>
<path style="fill:#E5A933;" d="M235.214,314.722v56.4c0,37.22-30.172,67.393-67.393,67.393l0,0v48.06h8.985
	c13.215,0,23.927,10.712,23.927,23.927l0,0h-45.179c-14,0-25.348-11.349-25.348-25.348v-58.786c0-9.126,4.297-17.719,11.597-23.196
	l26.017-19.512l-17.71-11.191c-37.485-23.687-38.653-77.941-2.222-103.219l0,0l42.152,0.144
	C215.014,269.479,235.214,289.748,235.214,314.722z"/>
<g>
	<path style="fill:#CE9227;" d="M398.66,88.47l-0.178,22.841c-59.653-16.959-39.414-73.718-39.414-73.718
		c0,54.857,39.581,50.855,39.581,50.855L398.66,88.47z"/>
	<path style="fill:#CE9227;" d="M511.843,66.842l-112.034-6.593l109.025-6.416C510.454,57.938,511.478,62.316,511.843,66.842z"/>
	<path style="fill:#CE9227;" d="M307.169,267.169l46.003,58.653c4.981,6.35,13.856,8.102,20.877,4.121l22.789-12.925l19.535,22.478
		c6.72,7.732,19.263,1.01,16.546-8.866l-8.722-31.717c-3.208-11.666-15.647-18.154-27.051-14.108l-27.475,9.749l-16.191-42.728
		c-2.566-6.772-6.676-12.63-11.833-17.242c-12.613-11.279-32.688-5.91-38.237,10.074l0,0
		C300.752,252.313,302.168,260.793,307.169,267.169z"/>
	<polygon style="fill:#CE9227;" points="76.957,214.695 56.581,238.205 67.459,194.768 	"/>
	<path style="fill:#CE9227;" d="M207.161,160.766v55.087c0,4.336-3.511,7.837-7.837,7.837c-4.336,0-7.837-3.5-7.837-7.837v-52.83
		C196.692,162.104,201.916,161.352,207.161,160.766z"/>
	<path style="fill:#CE9227;" d="M251.131,159.732v36.415c0,4.326-3.511,7.837-7.837,7.837c-4.326,0-7.837-3.511-7.837-7.837V159.21
		C240.682,159.22,245.906,159.398,251.131,159.732z"/>
	<path style="fill:#CE9227;" d="M295.1,166.567v15.788c0,4.326-3.5,7.837-7.837,7.837c-4.326,0-7.837-3.511-7.837-7.837v-19.153
		C284.672,164.152,289.896,165.27,295.1,166.567z"/>
	<path style="fill:#CE9227;" d="M163.182,169.754v40.187c0,4.336-3.511,7.837-7.837,7.837s-7.837-3.5-7.837-7.837v-34.92
		C152.68,173.087,157.905,171.331,163.182,169.754z"/>
	<path style="fill:#CE9227;" d="M119.212,187.653v30.177c0,4.326-3.511,7.837-7.837,7.837s-7.837-3.511-7.837-7.837v-21.243
		C108.669,193.409,113.894,190.431,119.212,187.653z"/>
</g>
<g>
</g>
<g>
</g>
<g>
</g>
<g>
</g>
<g>
</g>
<g>
</g>
<g>
</g>
<g>
</g>
<g>
</g>
<g>
</g>
<g>
</g>
<g>
</g>
<g>
</g>
<g>
</g>
<g>
</g>
</svg>
