<?xml version="1.0" encoding="iso-8859-1"?>
<!-- Generator: Adobe Illustrator 19.0.0, SVG Export Plug-In . SVG Version: 6.00 Build 0)  -->
<svg version="1.1" id="Layer_1" xmlns="http://www.w3.org/2000/svg" xmlns:xlink="http://www.w3.org/1999/xlink" x="0px" y="0px"
	 viewBox="0 0 512 512" style="enable-background:new 0 0 512 512;" xml:space="preserve">
<path style="fill:#D8941D;" d="M301.259,341.782v49.253c0,23.228-18.827,42.065-42.055,42.065v46.628h8.719
	c12.825,0,23.217,10.392,23.217,23.217h-43.839c-13.586,0-24.596-11.021-24.596-24.596V276.423"/>
<path style="fill:#E5A933;" d="M126.368,329.697c-65.587,0-118.764-53.177-118.764-118.774V59.29l74.671,156.631l14.316-10.017
	c66.986-46.891,153.083-56.847,229.001-26.482L311.6,74.893c-4.674-34.857,22.447-65.84,57.618-65.84
	c9.804,0,19.568,0.781,29.209,2.322c9.642,1.541,19.162,3.853,28.469,6.915l46.8,15.401c18.32,6.022,30.7,23.126,30.7,42.41
	c0,4.785-1.947,9.115-5.079,12.258c-3.133,3.133-7.472,5.069-12.258,5.069h-92.637l-1.014,128.284
	c-0.294,25.945-8.405,50.004-22.082,69.916l-25.053,27.009c-21.626,17.388-49.101,27.78-78.97,27.78h-31.46"/>
<g>
	<path style="fill:#D8941D;" d="M235.834,312.976v54.725c0,36.115-29.276,65.391-65.391,65.391l0,0v46.633h8.718
		c12.822,0,23.216,10.394,23.216,23.216l0,0h-43.837c-13.584,0-24.595-11.012-24.595-24.595v-57.04
		c0-8.855,4.169-17.193,11.253-22.507l25.244-18.933l-17.184-10.858c-36.371-22.983-37.505-75.626-2.156-100.153l0,0l40.9,0.14
		C216.234,269.078,235.834,288.745,235.834,312.976z"/>
	<path style="fill:#D8941D;" d="M297.866,256.911l60.829,77.556l33.962-19.262l18.955,21.81c6.52,7.503,18.691,0.98,16.054-8.603
		l-8.463-30.775c-3.113-11.32-15.183-17.615-26.248-13.689l-26.658,9.459l-15.71-41.459c-6.484-17.109-23.126-28.205-41.412-27.608"
		/>
</g>
<path d="M418.757,49.686c0.536,0.116,1.073,0.17,1.601,0.17c3.508,0,6.663-2.442,7.428-6.012c0.88-4.106-1.736-8.148-5.842-9.028
	l-9.462-2.028c-4.104-0.881-8.148,1.736-9.028,5.842c-0.88,4.106,1.736,8.148,5.842,9.028L418.757,49.686z"/>
<path d="M476.073,26.467l-46.801-15.401c-9.657-3.177-19.631-5.6-29.645-7.2c-10.035-1.604-20.266-2.417-30.41-2.417
	c-18.961,0-36.997,8.184-49.481,22.454c-12.48,14.264-18.192,33.218-15.673,51.999l12.314,92.004
	c-35.069-11.961-72.663-16.028-109.51-11.767c-41.099,4.753-80.74,19.808-114.637,43.535l-6.957,4.868l-29.12-61.083
	c-1.808-3.791-6.345-5.4-10.137-3.591c-3.791,1.807-5.399,6.346-3.591,10.137l30.844,64.699l-16.315,18.825
	c-2.747,3.169-2.652,8.051,0.466,10.855c1.457,1.31,3.275,1.952,5.083,1.952c2.129,0,4.246-0.889,5.75-2.624l8.326-9.607
	c7.19-8.296,15.376-15.675,24.371-21.969l0,0c2.348-1.643,4.726-3.227,7.119-4.777v11.285c0,4.164,3.208,7.795,7.37,7.919
	c4.306,0.13,7.838-3.323,7.838-7.601v-20.65c9.194-5.022,18.646-9.405,28.305-13.119v27.368c0,4.164,3.208,7.795,7.37,7.919
	c4.306,0.13,7.838-3.323,7.838-7.601v-32.953c10.553-3.245,21.301-5.712,32.159-7.43v44.625c0,4.164,3.208,7.795,7.37,7.919
	c4.306,0.13,7.838-3.323,7.838-7.601v-46.846c7.233-0.662,14.496-0.988,21.773-0.972v32.292c0,4.164,3.208,7.795,7.37,7.919
	c4.306,0.13,7.838-3.323,7.838-7.601V170.14c9.225,0.622,18.439,1.805,27.599,3.53v17.598c0,4.164,3.208,7.795,7.37,7.919
	c4.306,0.13,7.838-3.323,7.838-7.601v-14.537c9.647,2.488,19.203,5.593,28.609,9.346c1.995,0.796,4.253,0.844,6.202-0.058
	c3.107-1.438,4.807-4.674,4.372-7.925l-13.991-104.53c-1.935-14.436,2.455-29.003,12.047-39.966
	c9.596-10.969,23.46-17.26,38.035-17.26c9.342,0,18.766,0.749,28.009,2.226c9.218,1.473,18.401,3.704,27.292,6.629l46.802,15.402
	c9.228,3.033,16.617,9.422,21.013,17.549h-96.471c-4.164,0-7.795,3.208-7.919,7.37c-0.13,4.306,3.323,7.838,7.601,7.838h101.162
	c0.053,0.805,0.085,1.614,0.085,2.429c0,2.591-1.016,5.038-2.852,6.881c-1.833,1.833-4.276,2.842-6.881,2.842
	c0,0-93.04,0.002-93.342,0.032c-0.429,0.035-10.566,0.789-18.803-6.788c-7.448-6.851-11.25-18.505-11.303-34.644
	c-0.014-4.158-3.176-7.8-7.332-7.945c-4.324-0.151-7.877,3.309-7.877,7.599c0,20.917,5.542,36.532,16.472,46.416
	c7.459,6.744,15.828,9.241,21.888,10.128l-0.743,94.077c-0.033,4.199,3.344,7.63,7.543,7.664c4.193,0.07,7.63-3.345,7.664-7.543
	l0.741-93.789h85.091c6.666,0,12.929-2.591,17.643-7.306C509.409,89.003,512,82.744,512,76.1
	C512,53.477,497.561,33.531,476.073,26.467z"/>
<path d="M426.536,295.622c-2.042-7.426-7.129-13.727-13.958-17.288c-6.828-3.562-14.908-4.126-22.164-1.551l-2.272,0.806
	c8.233-17.34,12.649-36.295,12.87-55.793c0.048-4.199-3.317-7.642-7.518-7.689c-0.029,0-0.059,0-0.088,0
	c-4.159,0-7.554,3.348-7.602,7.518c-0.236,20.836-5.859,40.973-16.32,58.733l-11.786-31.102
	c-7.635-20.149-27.229-33.217-48.77-32.515c-4.197,0.137-7.489,3.65-7.353,7.847c0.137,4.197,3.655,7.493,7.847,7.353
	c15.043-0.492,28.723,8.634,34.054,22.703l15.711,41.459c1.466,3.868,5.757,5.856,9.653,4.471l5.099-1.809
	c0.021-0.008,0.043-0.015,0.064-0.022l21.496-7.627c3.338-1.184,6.906-0.935,10.045,0.703c3.141,1.637,5.388,4.42,6.326,7.836
	l8.464,30.775c0.1,0.365,0.367,1.336-0.854,1.99c-1.223,0.654-1.881-0.105-2.13-0.391l-18.955-21.81
	c-2.373-2.731-6.342-3.412-9.491-1.626l-28.267,16.032l-56.788-72.405c-2.591-3.304-7.372-3.882-10.676-1.291
	c-3.304,2.591-3.882,7.372-1.291,10.676l43.608,55.6c-19.859,13.966-43.784,21.607-68.186,21.607h-23.866v-30.418
	c0-4.199-3.405-7.604-7.604-7.604s-7.604,3.405-7.604,7.604v59.308c0,31.864-25.922,57.787-57.787,57.787
	c-4.199,0-7.604,3.405-7.604,7.604v46.633c0,4.199,3.405,7.604,7.604,7.604h8.718c5.851,0,10.96,3.234,13.632,8.008h-34.253
	c-9.369,0-16.991-7.622-16.991-16.991v-57.04c0-6.427,3.07-12.567,8.211-16.424l25.244-18.933c2-1.501,3.136-3.888,3.035-6.387
	c-0.1-2.498-1.422-4.788-3.536-6.125l-17.184-10.858c-14.919-9.427-24.053-25.589-24.432-43.233
	c-0.38-17.644,8.049-34.184,22.549-44.245c3.45-2.394,4.307-7.132,1.912-10.583c-2.394-3.449-7.132-4.307-10.583-1.912
	c-18.701,12.976-29.573,34.31-29.084,57.067c0.015,0.698,0.042,1.393,0.077,2.088c-57.285-4.406-102.551-52.435-102.551-110.838
	V92.911l16.049,33.666c1.807,3.79,6.344,5.399,10.137,3.591c3.791-1.807,5.399-6.346,3.591-10.137L14.468,56.017
	c-1.529-3.208-5.077-4.928-8.541-4.145C2.461,52.657,0,55.736,0,59.29v151.633c0,67.673,53.463,123.088,120.366,126.232
	c4.549,15.666,14.664,29.33,28.832,38.282l7.858,4.966l-16.419,12.314c-8.951,6.714-14.294,17.401-14.294,28.59v57.04
	c0,17.755,14.444,32.199,32.199,32.199h43.837c4.199,0,7.604-3.405,7.604-7.604c0-16.994-13.826-30.82-30.82-30.82h-1.114v-31.818
	c13.866-1.442,26.587-6.786,37.053-14.905v52.951c0,17.755,14.445,32.2,32.2,32.2h43.839c4.199,0,7.604-3.405,7.604-7.604
	c0-16.994-13.826-30.821-30.821-30.821h-1.115v-32.001c23.785-3.672,42.055-24.286,42.055-49.088v-43.66
	c12.82-4.191,24.996-10.31,36.038-18.174l7.812,9.96c2.322,2.96,6.459,3.778,9.735,1.921l28.551-16.193l14.874,17.116
	c3.361,3.868,7.946,5.902,12.668,5.902c2.732,0,5.51-0.681,8.123-2.081c7.13-3.821,10.479-11.628,8.335-19.428L426.536,295.622z
	 M293.655,391.036c0,19.002-15.454,34.461-34.451,34.461c-4.199,0-7.604,3.405-7.604,7.604v46.628c0,4.199,3.405,7.604,7.604,7.604
	h8.719c5.851,0,10.96,3.234,13.633,8.009h-34.255c-9.37,0-16.992-7.623-16.992-16.992v-68.941
	c8.268-11.832,13.13-26.21,13.13-41.707V354.02h23.866c8.883,0,17.712-0.901,26.35-2.644L293.655,391.036L293.655,391.036z"/>
<g>
</g>
<g>
</g>
<g>
</g>
<g>
</g>
<g>
</g>
<g>
</g>
<g>
</g>
<g>
</g>
<g>
</g>
<g>
</g>
<g>
</g>
<g>
</g>
<g>
</g>
<g>
</g>
<g>
</g>
</svg>
